<svg width="15" height="15" viewBox="0 0 15 15" fill="none" xmlns="http://www.w3.org/2000/svg">
<path d="M7.50084 6.2752e-07C3.35661 -0.00167516 0 3.35326 0 7.49414C0 10.7686 2.09977 13.5521 5.02402 14.5744C5.41783 14.6732 5.3575 14.3934 5.3575 14.2023V12.9036C3.08345 13.17 2.99129 11.6652 2.83879 11.4138C2.53044 10.8876 1.80147 10.7535 2.01933 10.5022C2.53715 10.2357 3.06502 10.5692 3.67668 11.4725C4.11909 12.1277 4.98213 12.0171 5.41951 11.9082C5.51503 11.5144 5.71947 11.1624 6.00101 10.8893C3.64484 10.467 2.66283 9.02916 2.66283 7.31985C2.66283 6.49034 2.93599 5.72785 3.47224 5.11284C3.13038 4.09898 3.50408 3.23092 3.55435 3.10189C4.52799 3.01475 5.54016 3.79902 5.61893 3.86102C6.17194 3.71188 6.80371 3.63311 7.51089 3.63311C8.22143 3.63311 8.85488 3.71523 9.41292 3.86605C9.60228 3.72193 10.5407 3.04826 11.4456 3.13038C11.4942 3.25941 11.8596 4.10736 11.5378 5.10781C12.0808 5.7245 12.3573 6.49369 12.3573 7.32488C12.3573 9.03754 11.3686 10.477 9.0057 10.8926C9.20808 11.0917 9.36878 11.329 9.47841 11.5909C9.58803 11.8527 9.64438 12.1338 9.64417 12.4176V14.3029C9.65758 14.4537 9.64417 14.6028 9.89554 14.6028C12.8634 13.6024 15 10.7988 15 7.49581C15 3.35326 11.6417 6.2752e-07 7.50084 6.2752e-07V6.2752e-07Z" fill="#F2F2F2"/>
</svg>
