<svg width="30" height="30" viewBox="0 0 30 30" fill="none" xmlns="http://www.w3.org/2000/svg">
<rect width="30" height="30" rx="15" fill="white"/>
<path d="M10.0401 9.44466C9.30471 9.68278 8.77778 10.2874 8.77778 11C8.77778 11.2744 8.86304 11.5298 9.00071 11.7585C8.41737 11.9507 8 12.4328 8 13C8 13.5674 8.41737 14.0493 9.00071 14.2417C8.86304 14.4704 8.77778 14.7257 8.77778 15C8.77778 15.7127 9.30471 16.3174 10.0401 16.5553C9.98185 16.695 9.94444 16.8434 9.94444 17C9.94444 17.7354 10.6421 18.3333 11.5 18.3333C11.6937 18.3333 11.8773 18.299 12.0484 18.2437C12.3004 18.6895 12.8288 19 13.4444 19C14.3024 19 15 18.402 15 17.6667V8.33333C15 7.59814 14.3024 7 13.4444 7C12.8288 7 12.3004 7.31071 12.0484 7.75635C11.8773 7.70101 11.6937 7.66667 11.5 7.66667C10.6421 7.66667 9.94444 8.26481 9.94444 9C9.94444 9.15674 9.98185 9.30501 10.0401 9.44466ZM11.5 8.33333C11.929 8.33333 12.2778 8.63232 12.2778 9H13.0556C13.0556 8.67969 12.9175 8.389 12.697 8.15902C12.7872 7.87646 13.0863 7.66667 13.4444 7.66667C13.8734 7.66667 14.2222 7.96566 14.2222 8.33333V17.6667C14.2222 18.0343 13.8734 18.3333 13.4444 18.3333C13.0863 18.3333 12.7872 18.1237 12.697 17.841C12.9175 17.611 13.0556 17.3205 13.0556 17H12.2778C12.2778 17.3677 11.929 17.6667 11.5 17.6667C11.071 17.6667 10.7222 17.3677 10.7222 17C10.7222 16.6323 11.071 16.3333 11.5 16.3333V15.6667C11.1212 15.6667 10.7782 15.7881 10.5084 15.9814C9.96704 15.895 9.55556 15.4888 9.55556 15C9.55556 14.4487 10.0791 14 10.7222 14C11.3656 14 11.8889 14.4487 11.8889 15H12.6667C12.6667 14.0811 11.7945 13.3333 10.7222 13.3333C10.2828 13.3333 9.8814 13.4637 9.55556 13.6755V13.6667C9.1266 13.6667 8.77778 13.3677 8.77778 13C8.77778 12.6323 9.1266 12.3333 9.55556 12.3333V12.3247C9.8814 12.5365 10.2828 12.6667 10.7222 12.6667C11.7945 12.6667 12.6667 11.9191 12.6667 11H11.8889C11.8889 11.5514 11.3656 12 10.7222 12C10.0791 12 9.55556 11.5514 9.55556 11C9.55556 10.5114 9.96704 10.1051 10.5084 10.0187C10.7782 10.2121 11.1212 10.3333 11.5 10.3333V9.66667C11.071 9.66667 10.7222 9.36768 10.7222 9C10.7222 8.63232 11.071 8.33333 11.5 8.33333Z" fill="#510A32"/>
<path d="M19 7.66667C18.7786 7.66667 18.569 7.70101 18.3735 7.75635C18.0853 7.31071 17.4813 7 16.7778 7C15.7973 7 15 7.59814 15 8.33333V17.6667C15 18.402 15.7973 19 16.7778 19C17.4813 19 18.0853 18.6895 18.3735 18.2437C18.569 18.299 18.7786 18.3333 19 18.3333C19.9805 18.3333 20.7778 17.7354 20.7778 17C20.7778 16.8434 20.7352 16.695 20.6684 16.5553C21.5089 16.3174 22.1111 15.7127 22.1111 15C22.1111 14.7257 22.0139 14.4704 21.8566 14.2417C22.5232 14.0493 23 13.5674 23 13C23 12.4328 22.5232 11.9507 21.8566 11.7585C22.0139 11.5298 22.1111 11.2744 22.1111 11C22.1111 10.2874 21.5089 9.68278 20.6684 9.44466C20.7352 9.30501 20.7778 9.15674 20.7778 9C20.7778 8.26481 19.9805 7.66667 19 7.66667ZM21.2222 11C21.2222 11.5514 20.6241 12 19.8889 12C19.1539 12 18.5556 11.5514 18.5556 11H17.6667C17.6667 11.9191 18.6636 12.6667 19.8889 12.6667C20.3911 12.6667 20.8498 12.5365 21.2222 12.3247V12.3333C21.7125 12.3333 22.1111 12.6323 22.1111 13C22.1111 13.3677 21.7125 13.6667 21.2222 13.6667V13.6755C20.8498 13.4637 20.3911 13.3333 19.8889 13.3333C18.6636 13.3333 17.6667 14.0811 17.6667 15H18.5556C18.5556 14.4487 19.1539 14 19.8889 14C20.6241 14 21.2222 14.4487 21.2222 15C21.2222 15.4888 20.752 15.895 20.1335 15.9814C19.8249 15.7881 19.4329 15.6667 19 15.6667V16.3333C19.4902 16.3333 19.8889 16.6323 19.8889 17C19.8889 17.3677 19.4902 17.6667 19 17.6667C18.5098 17.6667 18.1111 17.3677 18.1111 17H17.2222C17.2222 17.3205 17.38 17.611 17.6319 17.841C17.5289 18.1237 17.1871 18.3333 16.7778 18.3333C16.2875 18.3333 15.8889 18.0343 15.8889 17.6667V8.33333C15.8889 7.96566 16.2875 7.66667 16.7778 7.66667C17.1871 7.66667 17.5289 7.87646 17.6319 8.15902C17.38 8.389 17.2222 8.67969 17.2222 9H18.1111C18.1111 8.63232 18.5098 8.33333 19 8.33333C19.4902 8.33333 19.8889 8.63232 19.8889 9C19.8889 9.36768 19.4902 9.66667 19 9.66667V10.3333C19.4329 10.3333 19.8249 10.2121 20.1335 10.0187C20.752 10.1051 21.2222 10.5114 21.2222 11Z" fill="#510A32"/>
<path d="M21.3195 7.21316C19.5926 5.6547 17.3308 4.8733 14.9571 5.01676L15.0029 5.72487C17.1718 5.59544 19.2362 6.30754 20.8135 7.73016C22.3916 9.154 23.2609 11.0832 23.2609 13.1615C23.2609 15.6659 21.9607 17.9883 19.7828 19.374C19.0315 19.8522 18.4631 20.5343 18.1128 21.3227H12.8715C12.5164 20.5286 11.9458 19.8416 11.1933 19.3591C8.94881 17.9188 7.6591 15.5135 7.74302 12.9238L7.00423 12.9018C6.9122 15.7377 8.32498 18.3722 10.7828 19.9489C11.3256 20.2973 11.759 20.7717 12.0611 21.3227H11.065V22.0323H12.356C12.4276 22.2622 12.485 22.4979 12.5141 22.742H11.8041V23.4517H12.5433V24.5162C12.5433 24.7125 12.7089 24.871 12.9129 24.871H13.2824C13.2824 26.0452 14.2769 27 15.4999 27C16.7228 27 17.7173 26.0452 17.7173 24.871H18.0869C18.291 24.871 18.4564 24.7125 18.4564 24.5162V23.4517H19.1956V22.742H18.4824C18.5086 22.4982 18.5607 22.2619 18.6309 22.0323H19.9347V21.3227H18.9225C19.2203 20.7778 19.6512 20.3093 20.1913 19.9659C22.576 18.4474 24 15.904 24 13.1615C24 10.9183 23.0228 8.74996 21.3195 7.21316ZM15.4999 26.2903C14.6846 26.2903 14.0216 25.6538 14.0216 24.871H16.9781C16.9781 25.6538 16.3152 26.2903 15.4999 26.2903ZM17.7173 24.1613H13.2824V23.4517H17.7173V24.1613ZM17.7436 22.742H13.2528C13.2281 22.5005 13.1882 22.2631 13.1276 22.0323H17.8586C17.7998 22.2628 17.7657 22.5012 17.7436 22.742Z" fill="#510A32"/>
<path d="M6.41667 7.91667C7.33586 7.91667 8.08333 8.66435 8.08333 9.58333C8.08333 9.81384 8.2701 10 8.5 10C8.7301 10 8.91667 9.81384 8.91667 9.58333C8.91667 8.66435 9.66414 7.91667 10.5833 7.91667C10.8134 7.91667 11 7.73051 11 7.5C11 7.26969 10.8134 7.08333 10.5833 7.08333C9.66414 7.08333 8.91667 6.33586 8.91667 5.41667C8.91667 5.18636 8.7301 5 8.5 5C8.2701 5 8.08333 5.18636 8.08333 5.41667C8.08333 6.33586 7.33586 7.08333 6.41667 7.08333C6.18677 7.08333 6 7.26969 6 7.5C6 7.73051 6.18677 7.91667 6.41667 7.91667ZM8.5 6.79708C8.68514 7.0754 8.9246 7.31506 9.20292 7.5C8.9246 7.68514 8.68514 7.9246 8.5 8.20292C8.31506 7.9246 8.0754 7.68514 7.79708 7.5C8.0754 7.31506 8.31506 7.0754 8.5 6.79708Z" fill="#510A32"/>
<path d="M7.66667 11.3333C7.85075 11.3333 8 11.1844 8 11C8 10.8158 7.85075 10.6667 7.66667 10.6667C6.93132 10.6667 6.33333 10.0687 6.33333 9.33333C6.33333 9.14909 6.18408 9 6 9C5.81608 9 5.66667 9.14909 5.66667 9.33333C5.66667 10.0687 5.06868 10.6667 4.33333 10.6667C4.14941 10.6667 4 10.8158 4 11C4 11.1844 4.14941 11.3333 4.33333 11.3333C5.06868 11.3333 5.66667 11.9315 5.66667 12.6667C5.66667 12.8511 5.81608 13 6 13C6.18408 13 6.33333 12.8511 6.33333 12.6667C6.33333 11.9315 6.93132 11.3333 7.66667 11.3333ZM6 11.5623C5.85205 11.3397 5.66032 11.1481 5.43766 11C5.66032 10.8521 5.85173 10.6603 6 10.4377C6.14811 10.6603 6.33968 10.8517 6.56234 11C6.33968 11.1481 6.14811 11.3397 6 11.5623Z" fill="#510A32"/>
</svg>
