<svg width="159" height="87" viewBox="0 0 159 87" fill="none" xmlns="http://www.w3.org/2000/svg">
<circle cx="5" cy="5" r="5" fill="white"/>
<circle cx="37" cy="5" r="5" fill="white"/>
<circle cx="53" cy="5" r="5" fill="white"/>
<circle cx="72" cy="5" r="5" fill="white"/>
<circle cx="21" cy="5" r="5" fill="white"/>
<circle cx="5" cy="20" r="5" fill="white"/>
<circle cx="37" cy="20" r="5" fill="white"/>
<circle cx="53" cy="20" r="5" fill="white"/>
<circle cx="72" cy="20" r="5" fill="white"/>
<circle cx="21" cy="20" r="5" fill="white"/>
<circle cx="5" cy="36" r="5" fill="white"/>
<circle cx="37" cy="36" r="5" fill="white"/>
<circle cx="53" cy="36" r="5" fill="white"/>
<circle cx="72" cy="36" r="5" fill="white"/>
<circle cx="21" cy="36" r="5" fill="white"/>
<circle cx="87" cy="36" r="5" fill="white"/>
<circle cx="119" cy="36" r="5" fill="white"/>
<circle cx="135" cy="36" r="5" fill="white"/>
<circle cx="154" cy="36" r="5" fill="white"/>
<circle cx="103" cy="36" r="5" fill="white"/>
<circle cx="87" cy="20" r="5" fill="white"/>
<circle cx="119" cy="20" r="5" fill="white"/>
<circle cx="135" cy="20" r="5" fill="white"/>
<circle cx="154" cy="20" r="5" fill="white"/>
<circle cx="103" cy="20" r="5" fill="white"/>
<circle cx="87" cy="5" r="5" fill="white"/>
<circle cx="119" cy="5" r="5" fill="white"/>
<circle cx="135" cy="5" r="5" fill="white"/>
<circle cx="154" cy="5" r="5" fill="white"/>
<circle cx="103" cy="5" r="5" fill="white"/>
<circle cx="5" cy="51" r="5" fill="white"/>
<circle cx="37" cy="51" r="5" fill="white"/>
<circle cx="53" cy="51" r="5" fill="white"/>
<circle cx="72" cy="51" r="5" fill="white"/>
<circle cx="21" cy="51" r="5" fill="white"/>
<circle cx="5" cy="66" r="5" fill="white"/>
<circle cx="37" cy="66" r="5" fill="white"/>
<circle cx="53" cy="66" r="5" fill="white"/>
<circle cx="72" cy="66" r="5" fill="white"/>
<circle cx="21" cy="66" r="5" fill="white"/>
<circle cx="5" cy="82" r="5" fill="white"/>
<circle cx="37" cy="82" r="5" fill="white"/>
<circle cx="53" cy="82" r="5" fill="white"/>
<circle cx="72" cy="82" r="5" fill="white"/>
<circle cx="21" cy="82" r="5" fill="white"/>
<circle cx="87" cy="82" r="5" fill="white"/>
<circle cx="119" cy="82" r="5" fill="white"/>
<circle cx="135" cy="82" r="5" fill="white"/>
<circle cx="154" cy="82" r="5" fill="white"/>
<circle cx="103" cy="82" r="5" fill="white"/>
<circle cx="87" cy="66" r="5" fill="white"/>
<circle cx="119" cy="66" r="5" fill="white"/>
<circle cx="135" cy="66" r="5" fill="white"/>
<circle cx="154" cy="66" r="5" fill="white"/>
<circle cx="103" cy="66" r="5" fill="white"/>
<circle cx="87" cy="51" r="5" fill="white"/>
<circle cx="119" cy="51" r="5" fill="white"/>
<circle cx="135" cy="51" r="5" fill="white"/>
<circle cx="154" cy="51" r="5" fill="white"/>
<circle cx="103" cy="51" r="5" fill="white"/>
</svg>
