<svg width="15" height="15" viewBox="0 0 15 15" fill="none" xmlns="http://www.w3.org/2000/svg">
<path d="M7.49798 3.65171C5.36846 3.65171 3.64983 5.37034 3.64983 7.49986C3.64983 9.62938 5.36846 11.348 7.49798 11.348C9.62751 11.348 11.3461 9.62938 11.3461 7.49986C11.3461 5.37034 9.62751 3.65171 7.49798 3.65171ZM7.49798 10.0009C6.12083 10.0009 4.99697 8.87702 4.99697 7.49986C4.99697 6.12271 6.12083 4.99884 7.49798 4.99884C8.87514 4.99884 9.999 6.12271 9.999 7.49986C9.999 8.87702 8.87514 10.0009 7.49798 10.0009ZM11.5037 2.59726C11.0065 2.59726 10.605 2.99878 10.605 3.49598C10.605 3.99318 11.0065 4.3947 11.5037 4.3947C12.0009 4.3947 12.4025 3.99506 12.4025 3.49598C12.4026 3.37792 12.3795 3.26099 12.3343 3.15188C12.2892 3.04278 12.223 2.94364 12.1396 2.86016C12.0561 2.77668 11.9569 2.71049 11.8478 2.66537C11.7387 2.62026 11.6218 2.59712 11.5037 2.59726V2.59726ZM14.9992 7.49986C14.9992 6.46418 15.0085 5.43788 14.9504 4.40408C14.8922 3.20329 14.6183 2.13759 13.7402 1.25951C12.8603 0.379557 11.7964 0.107503 10.5956 0.0493401C9.55996 -0.00882312 8.53366 0.000558075 7.49986 0.000558075C6.46418 0.000558075 5.43788 -0.00882312 4.40408 0.0493401C3.20329 0.107503 2.13759 0.381433 1.25951 1.25951C0.379557 2.13946 0.107503 3.20329 0.0493401 4.40408C-0.00882312 5.43976 0.000558075 6.46606 0.000558075 7.49986C0.000558075 8.53366 -0.00882312 9.56184 0.0493401 10.5956C0.107503 11.7964 0.381433 12.8621 1.25951 13.7402C2.13946 14.6202 3.20329 14.8922 4.40408 14.9504C5.43976 15.0085 6.46606 14.9992 7.49986 14.9992C8.53554 14.9992 9.56184 15.0085 10.5956 14.9504C11.7964 14.8922 12.8621 14.6183 13.7402 13.7402C14.6202 12.8603 14.8922 11.7964 14.9504 10.5956C15.0104 9.56184 14.9992 8.53554 14.9992 7.49986V7.49986ZM13.3481 11.924C13.2111 12.2655 13.046 12.5207 12.7815 12.7833C12.5169 13.0479 12.2636 13.213 11.9221 13.35C10.9352 13.7421 8.59183 13.6539 7.49798 13.6539C6.40414 13.6539 4.05885 13.7421 3.07195 13.3518C2.73048 13.2149 2.47531 13.0498 2.21264 12.7852C1.94809 12.5207 1.78298 12.2674 1.64601 11.9259C1.25576 10.9371 1.34394 8.5937 1.34394 7.49986C1.34394 6.40602 1.25576 4.06073 1.64601 3.07383C1.78298 2.73235 1.94809 2.47719 2.21264 2.21451C2.47719 1.95184 2.73048 1.78486 3.07195 1.64789C4.05885 1.25763 6.40414 1.34582 7.49798 1.34582C8.59183 1.34582 10.9371 1.25763 11.924 1.64789C12.2655 1.78486 12.5207 1.94996 12.7833 2.21451C13.0479 2.47906 13.213 2.73235 13.35 3.07383C13.7402 4.06073 13.652 6.40602 13.652 7.49986C13.652 8.5937 13.7402 10.9371 13.3481 11.924Z" fill="#F2F2F2"/>
</svg>
