<svg width="30" height="30" viewBox="0 0 30 30" fill="none" xmlns="http://www.w3.org/2000/svg">
<rect width="30" height="30" rx="15" fill="white"/>
<path d="M22.855 13.5015C22.7673 13.4651 22.6663 13.4852 22.5991 13.5523L21.8958 14.2557V9.47347C21.8958 9.34375 21.7906 9.23863 21.6609 9.23863H19.8565L20.5115 8.58363C20.5116 8.58353 20.5117 8.58341 20.5118 8.58331L21.1429 7.95219C21.2781 7.81697 21.3526 7.63709 21.3526 7.44584C21.3526 7.25459 21.2781 7.07478 21.1429 6.9395L20.4131 6.20969C20.2779 6.07447 20.098 6 19.9067 6C19.7155 6 19.5357 6.07447 19.4004 6.20969L18.769 6.84113L18.006 7.60413L16.3715 9.23859H9.08188V6.91531C9.08188 6.78559 8.97672 6.68047 8.84703 6.68047C7.82859 6.68053 7 7.50906 7 8.52756V18.5021C7 18.5195 7.002 18.5363 7.00556 18.5526C7.038 18.9847 7.22497 19.3863 7.53744 19.6911C7.87144 20.0168 8.31234 20.1962 8.77897 20.1962H15.9552L14.6036 21.5478C14.5365 21.615 14.5164 21.7159 14.5527 21.8037C14.5891 21.8915 14.6747 21.9487 14.7697 21.9487H22.7652C22.8948 21.9487 23 21.8436 23 21.7138V13.7184C23 13.6235 22.9427 13.5378 22.855 13.5015ZM19.7326 6.54184C19.8286 6.44578 19.985 6.44578 20.081 6.54184L20.8108 7.27169C20.9069 7.36772 20.9069 7.52406 20.8108 7.62013L20.3455 8.0855L19.2672 7.00722L19.7326 6.54184ZM18.9351 7.33934L20.0133 8.41759L19.5824 8.8485L18.5042 7.77025L18.9351 7.33934ZM22.5304 16.3573H22.0971C21.9674 16.3573 21.8623 16.4624 21.8623 16.5921C21.8623 16.7218 21.9674 16.8269 22.0971 16.8269H22.5304V17.5346H22.0971C21.9674 17.5346 21.8623 17.6397 21.8623 17.7695C21.8623 17.8992 21.9674 18.0043 22.0971 18.0043H22.5304V18.712H22.0971C21.9674 18.712 21.8623 18.8171 21.8623 18.9468C21.8623 19.0765 21.9674 19.1817 22.0971 19.1817H22.5304V19.8893H22.0971C21.9674 19.8893 21.8623 19.9945 21.8623 20.1242C21.8623 20.2539 21.9674 20.359 22.0971 20.359H22.5304V21.4791H15.3366L17.7087 19.107C17.8005 19.0152 17.8005 18.8666 17.7087 18.7749C17.6982 18.7643 17.6869 18.7552 17.6751 18.7471C17.5836 18.6845 17.4578 18.6937 17.3766 18.7749L16.4248 19.7266H8.779C8.06675 19.7266 7.49338 19.1706 7.47081 18.4596C7.47216 18.415 7.47562 18.3707 7.48119 18.327C7.48122 18.3267 7.48125 18.3265 7.48128 18.3262C7.48391 18.3054 7.48706 18.2847 7.49066 18.2642C7.49106 18.2618 7.4915 18.2595 7.49191 18.2572C7.49519 18.2388 7.49888 18.2206 7.50291 18.2024C7.50403 18.1973 7.50522 18.1923 7.50641 18.1872C7.50997 18.1718 7.51381 18.1566 7.51794 18.1413C7.52019 18.1331 7.52253 18.1249 7.52494 18.1167C7.52838 18.1048 7.53194 18.0929 7.53572 18.0811C7.5395 18.0693 7.54353 18.0577 7.54763 18.046C7.55047 18.0378 7.55328 18.0297 7.55634 18.0216C7.56206 18.0062 7.56812 17.991 7.57437 17.9759C7.57616 17.9716 7.57791 17.9672 7.57975 17.9628C7.58778 17.9441 7.59613 17.9255 7.60494 17.9072C7.60531 17.9064 7.60566 17.9057 7.60603 17.9049C7.78972 17.5247 8.143 17.2413 8.56697 17.1534C8.56816 17.1532 8.56934 17.1529 8.57053 17.1526C8.58997 17.1487 8.60959 17.1453 8.62934 17.1421C8.63262 17.1416 8.63591 17.1409 8.63925 17.1404C8.65709 17.1377 8.67513 17.1356 8.69316 17.1335C8.69822 17.133 8.70325 17.1322 8.70834 17.1317C8.72575 17.1299 8.74331 17.1288 8.76087 17.1277C8.76644 17.1273 8.772 17.1267 8.77756 17.1265C8.80056 17.1253 8.82375 17.1247 8.84703 17.1247C8.97672 17.1247 9.08188 17.0196 9.08188 16.8899V15.1871C9.08188 15.0574 8.97672 14.9522 8.84703 14.9522C8.71734 14.9522 8.61219 15.0574 8.61219 15.1871V16.6698C8.21563 16.72 7.84753 16.8968 7.55728 17.1803C7.52675 17.2101 7.49781 17.2411 7.46962 17.2726V8.52756C7.46962 7.84816 7.96419 7.282 8.61216 7.17019V9.47347V14.2477V14.2478C8.61216 14.3775 8.71731 14.4826 8.847 14.4826C8.97669 14.4826 9.08184 14.3775 9.08184 14.2478V14.2477V9.70831H15.9018L14.6036 11.0066C14.5119 11.0983 14.5119 11.247 14.6036 11.3387C14.6953 11.4304 14.844 11.4304 14.9357 11.3387L16.6348 9.63953C16.6349 9.63947 16.6349 9.63941 16.635 9.63937L18.172 8.10234L19.2502 9.18062L19.1237 9.30713C19.1237 9.30722 19.1235 9.30731 19.1234 9.30741L14.3882 14.0427L13.3099 12.9645L14.2433 12.0311C14.335 11.9393 14.335 11.7907 14.2433 11.699C14.1516 11.6073 14.0029 11.6073 13.9112 11.699L12.8117 12.7984C12.8059 12.8043 12.8004 12.8105 12.7952 12.8169C12.7935 12.819 12.792 12.8213 12.7903 12.8235C12.787 12.8279 12.7838 12.8323 12.7807 12.837C12.779 12.8397 12.7775 12.8424 12.7758 12.8452C12.7733 12.8496 12.7708 12.854 12.7685 12.8585C12.767 12.8615 12.7656 12.8644 12.7642 12.8675C12.7622 12.8721 12.7602 12.8768 12.7584 12.8815C12.7578 12.8831 12.757 12.8847 12.7564 12.8863L12.2989 14.1824L11.9869 15.0662C11.9828 15.0779 11.9798 15.0898 11.9776 15.1019H11.1966C11.0669 15.1019 10.9618 15.207 10.9618 15.3367C10.9618 15.4664 11.0669 15.5716 11.1966 15.5716H17.7002C17.8299 15.5716 17.935 15.4664 17.935 15.3367C17.935 15.207 17.8299 15.1019 17.7002 15.1019H13.0342L14.4663 14.5963C14.4675 14.5959 14.4687 14.5953 14.4698 14.5948C14.4754 14.5928 14.4809 14.5905 14.4863 14.588C14.4884 14.587 14.4906 14.5861 14.4927 14.585C14.4983 14.5822 14.5038 14.5791 14.5093 14.5758C14.511 14.5747 14.5128 14.5738 14.5146 14.5727C14.5202 14.5691 14.5257 14.5651 14.5311 14.5609C14.5325 14.5599 14.5339 14.559 14.5352 14.5579C14.5417 14.5527 14.5481 14.547 14.5542 14.5409L19.3868 9.70834H21.426V14.7254L18.0668 18.0847C17.9751 18.1764 17.9751 18.3251 18.0668 18.4168C18.0725 18.4225 18.0785 18.4279 18.0846 18.4329C18.1277 18.468 18.1803 18.4856 18.2328 18.4856C18.2854 18.4856 18.338 18.468 18.3811 18.4329C18.3872 18.4279 18.3932 18.4225 18.3989 18.4168C18.399 18.4167 18.3989 18.4168 18.399 18.4167L22.5304 14.2853V16.3573ZM13.9587 14.2774L13.286 14.5148L12.8378 14.0667L13.0753 13.394L13.9587 14.2774Z" fill="#510A32"/>
</svg>
