<svg width="14" height="14" viewBox="0 0 14 14" fill="none" xmlns="http://www.w3.org/2000/svg">
<path d="M13.44 0H0.56C0.25025 0 0 0.25025 0 0.56V13.44C0 13.7498 0.25025 14 0.56 14H13.44C13.7498 14 14 13.7498 14 13.44V0.56C14 0.25025 13.7498 0 13.44 0ZM4.15275 11.9298H2.0755V5.24825H4.15275V11.9298ZM3.115 4.33475C2.87687 4.33475 2.64409 4.26414 2.44609 4.13184C2.2481 3.99954 2.09378 3.8115 2.00265 3.5915C1.91152 3.3715 1.88768 3.12941 1.93413 2.89586C1.98059 2.66231 2.09526 2.44778 2.26364 2.27939C2.43203 2.11101 2.64656 1.99634 2.88011 1.94988C3.11366 1.90343 3.35575 1.92727 3.57575 2.0184C3.79575 2.10953 3.98379 2.26385 4.11609 2.46184C4.24839 2.65984 4.319 2.89262 4.319 3.13075C4.31725 3.79575 3.77825 4.33475 3.115 4.33475ZM11.9298 11.9298H9.85425V8.68C9.85425 7.90475 9.84025 6.909 8.7745 6.909C7.69475 6.909 7.5285 7.7525 7.5285 8.624V11.9298H5.45475V5.24825H7.44625V6.16175H7.47425C7.75075 5.63675 8.428 5.082 9.4395 5.082C11.543 5.082 11.9298 6.46625 11.9298 8.26525V11.9298Z" fill="white"/>
</svg>
