<svg width="30" height="30" viewBox="0 0 30 30" fill="none" xmlns="http://www.w3.org/2000/svg">
<rect width="30" height="30" rx="15" fill="white"/>
<path d="M25.6778 18.3383H24.1316C24.1144 18.3383 24.1004 18.3243 24.1004 18.3071V14.1078C24.1004 14.0906 24.1144 14.0766 24.1316 14.0766H25.6778C25.8557 14.0766 26 13.9323 26 13.7544C26 13.5764 25.8557 13.4321 25.6778 13.4321H24.1316C23.759 13.4321 23.4559 13.7352 23.4559 14.1078V14.1737H23.1168C23.0564 13.7321 22.8159 13.3298 22.4471 13.0691L21.006 12.0507C20.8515 11.9414 20.6697 11.8837 20.4805 11.8837H20.1254C19.9474 11.8837 19.8031 12.028 19.8031 12.2059C19.8031 12.3839 19.9474 12.5282 20.1254 12.5282H20.4805C20.5358 12.5282 20.5888 12.5451 20.634 12.577L22.0751 13.5955C22.3335 13.7781 22.4877 14.0759 22.4877 14.3922V15.2995C22.4877 15.4775 22.632 15.6218 22.8099 15.6218C22.9879 15.6218 23.1322 15.4775 23.1322 15.2995V14.8183H23.4559V17.5966H23.0124C22.7231 17.5966 22.4878 17.832 22.4878 18.1213C22.4878 18.1783 22.4656 18.2318 22.4249 18.2724C22.3843 18.313 22.3305 18.3353 22.2733 18.3353H19.4967C19.5423 18.2199 19.5676 18.0944 19.5676 17.963C19.5676 17.5756 19.3499 17.2383 19.0304 17.0666C19.1133 16.9177 19.1577 16.7493 19.1577 16.574C19.1577 16.2202 18.9761 15.9082 18.7014 15.7259C18.9162 15.4793 19.0527 15.1628 19.0717 14.8155C19.3572 15.7388 20.219 16.4115 21.2348 16.4115C21.4128 16.4115 21.5571 16.2673 21.5571 16.0893C21.5571 15.9113 21.4128 15.767 21.2348 15.767C20.3421 15.767 19.6158 15.0407 19.6158 14.1479V14.0272C19.6158 13.7 19.3496 13.4338 19.0224 13.4338C18.8642 13.4338 18.7154 13.4956 18.6033 13.6077C18.4911 13.7198 18.4294 13.8688 18.4294 14.0272V14.7323C18.4294 15.2121 18.0391 15.6024 17.5593 15.6024C17.5467 15.6024 17.5378 15.599 17.5324 15.5961C17.531 15.5953 17.5296 15.5946 17.5282 15.5938C17.5245 15.5919 17.521 15.5892 17.5153 15.5835C17.5073 15.5756 17.4978 15.5617 17.4978 15.5405V14.4899V13.0797C17.4978 12.7757 17.7451 12.5284 18.0491 12.5284H18.7877C18.9657 12.5284 19.11 12.3841 19.11 12.2061C19.11 12.0282 18.9657 11.8839 18.7877 11.8839H18.0491C17.4937 11.8839 17.0256 12.2645 16.8917 12.7785H16.3531C16.081 12.7785 15.8255 12.8845 15.6341 13.0766C15.4422 13.2685 15.3365 13.5238 15.3365 13.7956C15.3365 14.0216 15.4107 14.2306 15.536 14.3997C15.511 14.4203 15.487 14.4422 15.4639 14.4654C15.2714 14.6572 15.1655 14.9127 15.1655 15.1847C15.1655 15.5933 15.408 15.9462 15.7566 16.1076C15.6829 16.2499 15.6437 16.4088 15.6437 16.5739C15.6437 16.9613 15.8617 17.2987 16.1814 17.4702C16.1001 17.6163 16.0537 17.7843 16.0537 17.9629C16.0537 18.5236 16.5098 18.9798 17.0705 18.9798H18.5508C18.5516 18.9798 18.5524 18.9797 18.5533 18.9797H22.2733C22.5027 18.9797 22.7183 18.8904 22.8801 18.7286C23.0141 18.5952 23.0985 18.4253 23.124 18.2411H23.4559V18.3071C23.4559 18.6796 23.7591 18.9828 24.1317 18.9828H25.6778C25.8557 18.9828 26 18.8385 26 18.6605C26 18.4825 25.8557 18.3383 25.6778 18.3383ZM16.0902 13.5319C16.1602 13.4617 16.2536 13.423 16.3531 13.423H16.8533V14.1677H16.3531C16.1479 14.1677 15.981 14.0007 15.981 13.7956C15.981 13.696 16.0197 13.6025 16.0902 13.5319ZM15.81 15.1847C15.81 15.0852 15.8487 14.9919 15.9196 14.9211C15.9896 14.8509 16.083 14.8122 16.1825 14.8122H16.3531H16.8533V15.5405C16.8533 15.546 16.8533 15.5514 16.8534 15.5568H16.6608H16.1825C15.9771 15.5569 15.81 15.39 15.81 15.1847ZM16.2883 16.5739C16.2882 16.4744 16.3269 16.3811 16.3979 16.3103C16.4679 16.2401 16.5612 16.2014 16.6608 16.2014H17.3103C17.3893 16.2313 17.4739 16.247 17.5593 16.247C17.6866 16.247 17.8102 16.2311 17.9283 16.2014H18.1411C18.3463 16.2014 18.5132 16.3686 18.5132 16.574C18.5132 16.6732 18.4745 16.7664 18.4035 16.8371C18.3335 16.9074 18.2403 16.946 18.1411 16.946H16.6608C16.4554 16.946 16.2883 16.7791 16.2883 16.5739ZM18.552 18.3352H17.2984C17.298 18.3352 17.2976 18.3353 17.2972 18.3353H17.0705C16.8652 18.3353 16.6982 18.1682 16.6982 17.9629C16.6982 17.7576 16.8652 17.5906 17.0705 17.5906H18.5508C18.7561 17.5906 18.9231 17.7576 18.9231 17.9629C18.9231 18.1678 18.7567 18.3346 18.552 18.3352Z" fill="#510A32"/>
<path d="M14.8346 15.1845C14.8346 14.869 14.6902 14.5867 14.464 14.4C14.5894 14.2309 14.6637 14.0216 14.6637 13.7953C14.6637 13.2346 14.2076 12.7785 13.6469 12.7785C13.3202 12.7785 13.0328 12.7785 12.7072 12.7785C12.5733 12.2643 12.105 11.8837 11.5496 11.8837H9.51951C9.33027 11.8837 9.14856 11.9414 8.994 12.0506L7.55287 13.0691C7.18398 13.3299 6.94293 13.7321 6.88264 14.1738H6.54409V14.1078C6.54409 13.7352 6.24095 13.4321 5.86837 13.4321H4.32227C4.14429 13.4321 4 13.5764 4 13.7544C4 13.9323 4.14429 14.0766 4.32227 14.0766H5.86841C5.8856 14.0766 5.89961 14.0906 5.89961 14.1078C5.89961 18.57 5.91688 18.3383 5.86841 18.3383H4.32227C4.14429 18.3383 4 18.4825 4 18.6605C4 18.8385 4.14429 18.9828 4.32227 18.9828H5.86841C6.24099 18.9828 6.54414 18.6796 6.54414 18.3071V18.2411H6.87624C6.93477 18.6579 7.29377 18.9798 7.72651 18.9798H8.68226C8.86024 18.9798 9.00453 18.8355 9.00453 18.6575C9.00453 18.4795 8.86024 18.3353 8.68226 18.3353H7.72646C7.60839 18.3353 7.51239 18.2392 7.51239 18.1211C7.51239 17.8319 7.27705 17.5966 6.98783 17.5966H6.54409V14.8183H7.19009C7.36806 14.8183 7.51235 14.674 7.51235 14.496V14.3921C7.51235 14.0758 7.66657 13.778 7.92489 13.5954L9.36602 12.5769C9.41118 12.545 9.46429 12.5281 9.51955 12.5281H11.5496C11.7426 12.5281 11.9124 12.6279 12.011 12.7784H11.0321C10.8541 12.7784 10.7098 12.9227 10.7098 13.1007C10.7098 13.2786 10.8541 13.4229 11.0321 13.4229C12.0456 13.4229 12.6956 13.4229 13.6469 13.4229C13.8522 13.4229 14.0192 13.59 14.0192 13.7953C14.0192 14.0006 13.8522 14.1676 13.6469 14.1676C13.4689 14.1676 13.3246 14.3119 13.3246 14.4899C13.3246 14.6678 13.4689 14.8121 13.6469 14.8121H13.8177C14.023 14.8121 14.1901 14.9791 14.1901 15.1844C14.1901 15.3897 14.0231 15.5568 13.8177 15.5568H13.3395C13.1615 15.5568 13.0172 15.7011 13.0172 15.879C13.0172 16.057 13.1615 16.2013 13.3395 16.2013C13.5448 16.2013 13.7118 16.3683 13.7118 16.5736C13.7118 16.7789 13.5448 16.946 13.3395 16.946H12.9295C12.7516 16.946 12.6073 17.0903 12.6073 17.2683C12.6073 17.4462 12.7516 17.5905 12.9295 17.5905C13.1349 17.5905 13.3019 17.7575 13.3019 17.9628C13.3019 18.1681 13.1349 18.3352 12.9295 18.3352H10.0197C9.84177 18.3352 9.69748 18.4795 9.69748 18.6574C9.69748 18.8354 9.84177 18.9797 10.0197 18.9797H12.9295C13.4902 18.9797 13.9464 18.5235 13.9464 17.9628C13.9464 17.7842 13.9001 17.6163 13.8189 17.4702C14.1385 17.2986 14.3563 16.9611 14.3563 16.5737C14.3563 16.406 14.3155 16.2476 14.2433 16.108C14.5921 15.9466 14.8346 15.5933 14.8346 15.1845Z" fill="#510A32"/>
<path d="M15 8C14.822 8 14.6777 8.14429 14.6777 8.32227V10.7967C14.6777 10.9746 14.822 11.1189 15 11.1189C15.178 11.1189 15.3223 10.9746 15.3223 10.7967V8.32227C15.3223 8.14433 15.178 8 15 8Z" fill="#510A32"/>
<path d="M13.7935 11.2669L12.5563 9.12397C12.4673 8.96984 12.2702 8.91698 12.1161 9.00602C11.9619 9.095 11.9091 9.2921 11.9981 9.44623L13.2353 11.5891C13.295 11.6925 13.4033 11.7503 13.5147 11.7503C13.5694 11.7503 13.6248 11.7364 13.6755 11.7071C13.8297 11.6181 13.8825 11.421 13.7935 11.2669Z" fill="#510A32"/>
<path d="M17.8839 9.00603C17.7297 8.91699 17.5327 8.9698 17.4437 9.12397L16.2065 11.2669C16.1175 11.421 16.1703 11.6181 16.3244 11.7071C16.3752 11.7364 16.4306 11.7503 16.4853 11.7503C16.5967 11.7503 16.705 11.6925 16.7647 11.5891L18.0019 9.44624C18.0908 9.29211 18.038 9.09506 17.8839 9.00603Z" fill="#510A32"/>
</svg>
