<svg width="68" height="75" viewBox="0 0 68 75" fill="none" xmlns="http://www.w3.org/2000/svg">
<rect x="1.5" y="8.5" width="65" height="65" rx="1.5" stroke="#510A32" stroke-width="3"/>
<path d="M27.9385 41.8555C28.7132 42.015 29.4196 42.2428 30.0576 42.5391C30.7184 42.8353 31.14 43.1429 31.3223 43.4619C31.5273 43.8265 31.6299 44.4531 31.6299 45.3418C31.6299 46.1849 31.5273 46.9938 31.3223 47.7686C31.1172 48.5433 30.821 49.0788 30.4336 49.375C30.1374 49.6484 29.4766 49.7852 28.4512 49.7852C27.4486 49.7852 26.4232 49.6598 25.375 49.4092C24.3268 49.1357 23.666 48.8167 23.3926 48.4521C22.9368 47.8597 22.709 46.9368 22.709 45.6836C22.709 44.4303 22.9482 43.0404 23.4268 41.5137C23.9053 39.9642 24.623 38.4489 25.5801 36.9678C26.5599 35.4639 27.7448 34.165 29.1348 33.0713L31.7324 33.6523L27.9385 41.8555Z" fill="#510A32"/>
<path d="M43.7979 41.8555C44.5726 42.015 45.279 42.2428 45.917 42.5391C46.5778 42.8353 46.9993 43.1429 47.1816 43.4619C47.3867 43.8265 47.4893 44.4531 47.4893 45.3418C47.4893 46.1849 47.3867 46.9938 47.1816 47.7686C46.9766 48.5433 46.6803 49.0788 46.293 49.375C45.9967 49.6484 45.3359 49.7852 44.3105 49.7852C43.3079 49.7852 42.2826 49.6598 41.2344 49.4092C40.1862 49.1357 39.5254 48.8167 39.252 48.4521C38.7962 47.8597 38.5684 46.9368 38.5684 45.6836C38.5684 44.4303 38.8076 43.0404 39.2861 41.5137C39.7646 39.9642 40.4824 38.4489 41.4395 36.9678C42.4193 35.4639 43.6042 34.165 44.9941 33.0713L47.5918 33.6523L43.7979 41.8555Z" fill="#EE4540"/>
</svg>
