<svg width="18" height="11" viewBox="0 0 18 11" fill="none" xmlns="http://www.w3.org/2000/svg">
<path d="M9.33705 11C3.58705 11 0.987048 5.95 0.887048 5.7C0.837048 5.55 0.837048 5.4 0.887048 5.25C0.987048 5.05 3.58705 0 9.33705 0C15.087 0 17.687 5.05 17.787 5.3C17.837 5.45 17.837 5.6 17.787 5.75C17.687 5.95 15.087 11 9.33705 11ZM1.88705 5.5C2.43705 6.45 4.83705 10 9.33705 10C13.837 10 16.187 6.45 16.787 5.5C16.237 4.55 13.837 1 9.33705 1C4.83705 1 2.48705 4.55 1.88705 5.5Z" fill="#EE4540"/>
<path d="M9.33704 10C6.83704 10 4.83704 8 4.83704 5.5C4.83704 3 6.83704 1 9.33704 1C11.837 1 13.837 3 13.837 5.5C13.837 8 11.837 10 9.33704 10ZM9.33704 2C7.38704 2 5.83704 3.55 5.83704 5.5C5.83704 7.45 7.38704 9 9.33704 9C11.287 9 12.837 7.45 12.837 5.5C12.837 3.55 11.287 2 9.33704 2Z" fill="#EE4540"/>
<path d="M9.33704 8C7.93704 8 6.83704 6.9 6.83704 5.5C6.83704 5.2 7.03704 5 7.33704 5C7.63704 5 7.83704 5.2 7.83704 5.5C7.83704 6.35 8.48704 7 9.33704 7C10.187 7 10.837 6.35 10.837 5.5C10.837 4.65 10.187 4 9.33704 4C9.03704 4 8.83704 3.8 8.83704 3.5C8.83704 3.2 9.03704 3 9.33704 3C10.737 3 11.837 4.1 11.837 5.5C11.837 6.9 10.737 8 9.33704 8Z" fill="#EE4540"/>
</svg>
