<svg width="45" height="62" viewBox="0 0 45 62" fill="none" xmlns="http://www.w3.org/2000/svg">
<path d="M0 49.8634L0.374066 49.3397L18.0649 15.7717L18.1023 15.4163L10.304 0.76784C9.65031 -0.459195 7.81081 -0.148912 7.59656 1.22472L0 49.8634Z" fill="#FFC24A"/>
<path d="M0.220825 49.4641L0.503621 48.9125L18.0093 15.6961L10.2302 0.988108C9.58376 -0.226066 7.94195 0.0835122 7.72981 1.4427L0.220825 49.4641Z" fill="#FFA712"/>
<g filter="url(#filter0_i)">
<path d="M0.220825 49.4641L0.503621 48.9125L18.0093 15.6961L10.2302 0.988108C9.58376 -0.226066 7.94195 0.0835122 7.72981 1.4427L0.220825 49.4641Z" fill="#F6820C" fill-opacity="0.11"/>
</g>
<path d="M23.7875 26.4965L29.5941 20.5499L23.7858 9.46179C23.2344 8.41219 21.695 8.40902 21.1495 9.46179L18.0461 15.3797V15.8836L23.7873 26.4965H23.7875Z" fill="#F4BD62"/>
<path d="M23.6839 26.2488L29.329 20.4674L23.6839 9.71817C23.1479 8.69782 21.8456 8.59086 21.3152 9.61422L18.1957 15.6241L18.1023 15.9314L23.6839 26.2488Z" fill="#FFA50E"/>
<g filter="url(#filter1_i)">
<path d="M23.6839 26.2488L29.329 20.4674L23.6839 9.71817C23.1479 8.69782 21.8456 8.59086 21.3152 9.61422L18.1957 15.6241L18.1023 15.9314L23.6839 26.2488Z" fill="#F6820C" fill-opacity="0.11"/>
</g>
<path d="M0 49.8633L0.169501 49.6927L0.785486 49.4425L23.4227 26.8893L23.7096 26.1086L18.0625 15.3475L0 49.8633Z" fill="#F6820C"/>
<path d="M24.5127 61.2375L45 49.8116L39.1496 13.7802C38.9665 12.6529 37.5835 12.2073 36.7765 13.0155L0 49.8634L20.3698 61.2366C21.0029 61.5901 21.716 61.7757 22.4411 61.7759C23.1663 61.776 23.8794 61.5907 24.5127 61.2375Z" fill="#FDE068"/>
<path d="M44.8164 49.7157L39.0104 13.958C38.8289 12.8391 37.6787 12.3763 36.8779 13.1785L0.227295 49.7933L20.3735 61.0537C21.0018 61.4045 21.7094 61.5888 22.429 61.5889C23.1487 61.5891 23.8564 61.4052 24.4849 61.0547L44.8166 49.7156L44.8164 49.7157Z" fill="#FCCA3F"/>
<path d="M24.5125 60.9008C23.8792 61.254 23.1661 61.4393 22.441 61.4391C21.7159 61.439 21.0029 61.2533 20.3697 60.8999L0.163985 49.6902L0.00012207 49.8634L20.3697 61.2366C21.0029 61.5901 21.7159 61.7757 22.4411 61.7759C23.1662 61.776 23.8793 61.5907 24.5126 61.2375L44.9999 49.8116L44.9497 49.5029L24.5126 60.9009L24.5125 60.9008Z" fill="#EEAB37"/>
<defs>
<filter id="filter0_i" x="0.220825" y="0.229309" width="17.7885" height="49.2348" filterUnits="userSpaceOnUse" color-interpolation-filters="sRGB">
<feFlood flood-opacity="0" result="BackgroundImageFix"/>
<feBlend mode="normal" in="SourceGraphic" in2="BackgroundImageFix" result="shape"/>
<feColorMatrix in="SourceAlpha" type="matrix" values="0 0 0 0 0 0 0 0 0 0 0 0 0 0 0 0 0 0 127 0" result="hardAlpha"/>
<feOffset/>
<feGaussianBlur stdDeviation="17.5"/>
<feComposite in2="hardAlpha" operator="arithmetic" k2="-1" k3="1"/>
<feColorMatrix type="matrix" values="0 0 0 0 0 0 0 0 0 0 0 0 0 0 0 0 0 0 0.06 0"/>
<feBlend mode="normal" in2="shape" result="effect1_innerShadow"/>
</filter>
<filter id="filter1_i" x="18.1023" y="1.89777" width="12.2267" height="24.351" filterUnits="userSpaceOnUse" color-interpolation-filters="sRGB">
<feFlood flood-opacity="0" result="BackgroundImageFix"/>
<feBlend mode="normal" in="SourceGraphic" in2="BackgroundImageFix" result="shape"/>
<feColorMatrix in="SourceAlpha" type="matrix" values="0 0 0 0 0 0 0 0 0 0 0 0 0 0 0 0 0 0 127 0" result="hardAlpha"/>
<feOffset dx="1" dy="-9"/>
<feGaussianBlur stdDeviation="3.5"/>
<feComposite in2="hardAlpha" operator="arithmetic" k2="-1" k3="1"/>
<feColorMatrix type="matrix" values="0 0 0 0 0 0 0 0 0 0 0 0 0 0 0 0 0 0 0.09 0"/>
<feBlend mode="normal" in2="shape" result="effect1_innerShadow"/>
</filter>
</defs>
</svg>