<svg width="60" height="59" viewBox="0 0 60 59" fill="none" xmlns="http://www.w3.org/2000/svg">
<path d="M30.0034 2.51008e-06C13.4264 -0.00670065 0 13.413 0 29.9765C0 43.0745 8.39906 54.2085 20.0961 58.2974C21.6713 58.6929 21.43 57.5735 21.43 56.8093V51.6143C12.3338 52.6801 11.9651 46.6607 11.3552 45.6552C10.1218 43.5504 7.2059 43.0142 8.07731 42.0087C10.1486 40.9429 12.2601 42.2768 14.7067 45.8898C16.4764 48.5108 19.9285 48.0684 21.678 47.6327C22.0601 46.0574 22.8779 44.6498 24.004 43.5571C14.5794 41.8679 10.6513 36.1166 10.6513 29.2794C10.6513 25.9613 11.7439 22.9114 13.889 20.4513C12.5215 16.3959 14.0163 12.9237 14.2174 12.4076C18.1119 12.059 22.1607 15.1961 22.4757 15.4441C24.6877 14.8475 27.2148 14.5325 30.0436 14.5325C32.8857 14.5325 35.4195 14.8609 37.6517 15.4642C38.4091 14.8877 42.1629 12.1931 45.7826 12.5215C45.977 13.0377 47.4383 16.4295 46.1513 20.4312C48.3231 22.898 49.4291 25.9748 49.4291 29.2995C49.4291 36.1502 45.4743 41.9082 36.0228 43.5705C36.8323 44.3667 37.4751 45.3161 37.9136 46.3635C38.3521 47.4108 38.5775 48.535 38.5767 49.6704V57.2115C38.6303 57.8148 38.5767 58.4114 39.5822 58.4114C51.4535 54.4096 60 43.1952 60 29.9832C60 13.413 46.5669 2.51008e-06 30.0034 2.51008e-06Z" fill="black"/>
</svg>