<svg width="50" height="50" viewBox="0 0 50 50" fill="none" xmlns="http://www.w3.org/2000/svg">
<path d="M48.2323 5.26575L37.9368 0.309039C37.3554 0.0287035 36.7011 -0.0638075 36.0648 0.0443304C35.4284 0.152468 34.8415 0.455898 34.3853 0.912558L0.682922 31.6384C0.274014 32.0095 0.0292425 32.5277 0.00245413 33.0792C-0.0243343 33.6307 0.169054 34.1703 0.540078 34.5792C0.584717 34.6274 0.629356 34.6739 0.677566 34.7167L3.42911 37.2165C3.78865 37.5437 4.25146 37.7347 4.73714 37.7562C5.22283 37.7778 5.70072 37.6285 6.0878 37.3343L46.6824 6.55135C46.9891 6.31867 47.3545 6.17621 47.7377 6.13998C48.1209 6.10376 48.5066 6.17522 48.8514 6.34631C49.1962 6.51741 49.4864 6.78135 49.6893 7.10843C49.8922 7.4355 49.9998 7.81272 50 8.19763V8.078C50 7.49037 49.834 6.91469 49.5213 6.41719C49.2086 5.91968 48.7618 5.52056 48.2323 5.26575Z" fill="#0065A9"/>
<path d="M48.2323 44.441L37.9368 49.3995C37.3552 49.6791 36.7011 49.7711 36.065 49.663C35.4288 49.5549 34.8419 49.252 34.3853 48.796L0.682922 18.0684C0.274014 17.6973 0.0292425 17.179 0.00245413 16.6275C-0.0243343 16.076 0.169054 15.5365 0.540078 15.1275C0.584717 15.0793 0.629356 15.0329 0.677566 14.9901L3.42911 12.4903C3.78902 12.1617 4.25288 11.9699 4.73977 11.9483C5.22665 11.9268 5.70564 12.0769 6.09316 12.3724L46.6824 43.1554C46.9891 43.3881 47.3545 43.5306 47.7377 43.5668C48.1209 43.603 48.5066 43.5316 48.8514 43.3605C49.1962 43.1894 49.4864 42.9254 49.6893 42.5983C49.8922 42.2713 49.9998 41.8941 50 41.5091V41.6377C49.9981 42.2238 49.8313 42.7975 49.5187 43.2932C49.2061 43.7889 48.7603 44.1867 48.2323 44.441Z" fill="#007ACC"/>
<path d="M37.9368 49.3994C37.3552 49.679 36.7012 49.7711 36.065 49.663C35.4288 49.5549 34.8419 49.2519 34.3853 48.7959C34.6417 49.049 34.9671 49.2208 35.3207 49.2897C35.6744 49.3586 36.0404 49.3217 36.3731 49.1834C36.7058 49.0452 36.9903 48.8119 37.191 48.5127C37.3916 48.2134 37.4995 47.8617 37.5011 47.5014V2.20539C37.5014 1.84344 37.3943 1.48954 37.1933 1.18853C36.9923 0.887517 36.7065 0.652933 36.372 0.514495C36.0376 0.376056 35.6696 0.339993 35.3147 0.410873C34.9597 0.481752 34.6338 0.656386 34.3782 0.912651C34.8344 0.456157 35.4213 0.152708 36.0575 0.0442699C36.6937 -0.0641686 37.3479 0.0277619 37.9296 0.307348L48.2234 5.25691C48.7545 5.51046 49.2032 5.90903 49.5176 6.40663C49.8319 6.90423 49.9992 7.48058 50 8.06916V41.6376C50.0002 42.2257 49.8341 42.8019 49.5211 43.2998C49.208 43.7977 48.7606 44.197 48.2305 44.4517L37.9368 49.3994Z" fill="#1F9CF0"/>
</svg>