<svg width="37" height="53" viewBox="0 0 37 53" fill="none" xmlns="http://www.w3.org/2000/svg">
<path d="M6.83333 12.6667C10.055 12.6667 12.6667 10.055 12.6667 6.83333C12.6667 3.61167 10.055 1 6.83333 1C3.61167 1 1 3.61167 1 6.83333C1 10.055 3.61167 12.6667 6.83333 12.6667Z" stroke="black" stroke-width="1.4" stroke-linecap="round" stroke-linejoin="round"/>
<path d="M6.83325 39.889V12.6667" stroke="black" stroke-width="1.4" stroke-linecap="round" stroke-linejoin="round"/>
<path d="M30.1666 20.4445C33.3882 20.4445 35.9999 17.8328 35.9999 14.6112C35.9999 11.3895 33.3882 8.77783 30.1666 8.77783C26.9449 8.77783 24.3333 11.3895 24.3333 14.6112C24.3333 17.8328 26.9449 20.4445 30.1666 20.4445Z" stroke="black" stroke-width="1.4" stroke-linecap="round" stroke-linejoin="round"/>
<path d="M30.1666 20.4443C30.1666 35.9999 6.83325 26.2777 6.83325 39.8888" stroke="black" stroke-width="1.4" stroke-linecap="round" stroke-linejoin="round"/>
<path d="M6.83333 51.5556C10.055 51.5556 12.6667 48.9439 12.6667 45.7222C12.6667 42.5006 10.055 39.8889 6.83333 39.8889C3.61167 39.8889 1 42.5006 1 45.7222C1 48.9439 3.61167 51.5556 6.83333 51.5556Z" stroke="#EE4540" stroke-width="1.4" stroke-linecap="round" stroke-linejoin="round"/>
</svg>