<svg width="8" height="10" viewBox="0 0 8 10" fill="none" xmlns="http://www.w3.org/2000/svg">
<path fill-rule="evenodd" clip-rule="evenodd" d="M0.5 8.5H7.5C7.63261 8.5 7.75979 8.55268 7.85355 8.64645C7.94732 8.74021 8 8.86739 8 9C8 9.13261 7.94732 9.25979 7.85355 9.35355C7.75979 9.44732 7.63261 9.5 7.5 9.5H0.5C0.367392 9.5 0.240215 9.44732 0.146447 9.35355C0.0526785 9.25979 0 9.13261 0 9C0 8.86739 0.0526785 8.74021 0.146447 8.64645C0.240215 8.55268 0.367392 8.5 0.5 8.5ZM4.5 5.5875L6.1215 3.9665L6.8285 4.6735L4 7.502L1.1715 4.6735L1.8785 3.9665L3.5 5.5875V0H4.5V5.5875Z" fill="white"/>
</svg>
