<svg width="95" height="22" viewBox="0 0 95 22" fill="none" xmlns="http://www.w3.org/2000/svg">
<path d="M79 1.99934C79.0001 1.8169 79.05 1.63795 79.1445 1.48188C79.239 1.3258 79.3743 1.19854 79.5359 1.11387C79.6975 1.02921 79.8792 0.990368 80.0613 1.00155C80.2434 1.01274 80.419 1.07353 80.569 1.17734L93.569 10.1773C93.7014 10.2698 93.8096 10.3928 93.8843 10.536C93.959 10.6792 93.998 10.8383 93.998 10.9998C93.998 11.1613 93.959 11.3205 93.8843 11.4637C93.8096 11.6069 93.7014 11.7299 93.569 11.8223L80.569 20.8223C80.4189 20.9262 80.2432 20.987 80.0611 20.9981C79.8789 21.0093 79.6971 20.9704 79.5355 20.8856C79.3738 20.8008 79.2385 20.6734 79.1441 20.5172C79.0497 20.3609 78.9999 20.1819 79 19.9993" stroke="#fff" stroke-width="1.5"/>
<line y1="10.25" x2="79" y2="10.25" stroke="#fff" stroke-width="1.5"/>
</svg>
