<svg width="15" height="13" viewBox="0 0 15 13" fill="none" xmlns="http://www.w3.org/2000/svg">
<path d="M15 1.44755C14.4484 1.6855 13.8481 1.85676 13.2298 1.92345C13.8717 1.54207 14.3525 0.939557 14.5818 0.228946C13.9794 0.587297 13.3195 0.838579 12.6313 0.971645C12.3437 0.664158 11.9958 0.4192 11.6094 0.252034C11.2229 0.0848682 10.8062 -0.000922576 10.3852 7.4818e-06C8.68165 7.4818e-06 7.31162 1.38085 7.31162 3.07536C7.31162 3.31331 7.34046 3.55126 7.38733 3.7802C4.83656 3.6468 2.56159 2.4282 1.04915 0.56244C0.77357 1.03314 0.629156 1.5691 0.630934 2.11454C0.630934 3.18172 1.17354 4.12271 2.00096 4.67613C1.51335 4.65692 1.03715 4.5229 0.611104 4.28495V4.3228C0.611104 5.81722 1.66747 7.05565 3.07535 7.34047C2.81101 7.40914 2.53907 7.44426 2.26595 7.44503C2.06586 7.44503 1.87658 7.4252 1.68549 7.39816C2.07487 8.61676 3.20875 9.50187 4.55895 9.53071C3.50258 10.3581 2.17943 10.8449 0.742699 10.8449C0.484918 10.8449 0.246966 10.8358 0 10.807C1.36282 11.6813 2.97981 12.186 4.72119 12.186C10.3744 12.186 13.4677 7.50271 13.4677 3.4377C13.4677 3.3043 13.4677 3.1709 13.4587 3.0375C14.0572 2.59945 14.5818 2.05685 15 1.44755Z" fill="#F2F2F2"/>
</svg>
